<svg width="127" height="114" viewBox="0 0 127 114" fill="none" xmlns="http://www.w3.org/2000/svg">
<path d="M106.181 58.2966C106.419 32.7828 85.8052 11.9082 60.1387 11.6719C34.4723 11.4356 13.4728 31.927 13.2351 57.4408C12.9974 82.9547 33.6114 103.829 59.2779 104.066C84.9443 104.302 105.944 83.8104 106.181 58.2966Z" fill="#777F89"/>
<path fill-rule="evenodd" clip-rule="evenodd" d="M49.649 34.7842C47.5827 36.5839 47.5422 39.5465 49.5586 41.4013L66.5609 57.0414L49.1374 72.2164C47.0711 74.0161 47.0306 76.9787 49.047 78.8336C51.0634 80.6884 54.3732 80.7331 56.4395 78.9334L77.6045 60.4997C78.5968 59.6354 79.1638 58.4527 79.1808 57.2118C79.1977 55.9708 78.6633 54.7733 77.6949 53.8825L57.0415 34.884C55.0251 33.0292 51.7154 32.9845 49.649 34.7842Z" fill="white"/>
</svg>
