<svg width="127" height="114" viewBox="0 0 127 114" fill="none" xmlns="http://www.w3.org/2000/svg">
<path d="M20.8185 58.2966C20.5808 32.7828 41.1948 11.9082 66.8613 11.6719C92.5277 11.4356 113.527 31.927 113.765 57.4408C114.003 82.9547 93.3886 103.829 67.7221 104.066C42.0557 104.302 21.0562 83.8104 20.8185 58.2966Z" fill="#777F89"/>
<path fill-rule="evenodd" clip-rule="evenodd" d="M77.351 34.7842C79.4173 36.5839 79.4578 39.5465 77.4414 41.4013L60.4391 57.0414L77.8626 72.2164C79.9289 74.0161 79.9694 76.9787 77.953 78.8336C75.9366 80.6884 72.6268 80.7331 70.5605 78.9334L49.3955 60.4997C48.4032 59.6354 47.8362 58.4527 47.8192 57.2118C47.8023 55.9708 48.3367 54.7733 49.3051 53.8825L69.9585 34.884C71.9749 33.0292 75.2846 32.9845 77.351 34.7842Z" fill="white"/>
</svg>
