<svg width="60" height="60" viewBox="0 0 60 60" fill="none" xmlns="http://www.w3.org/2000/svg">
<path d="M43.6131 33.9347C45.3508 30.6469 46.2885 26.9715 46.2885 23.1337C46.2885 16.958 43.8755 11.1449 39.5124 6.76943C30.486 -2.25648 15.7962 -2.25648 6.76978 6.76943C-2.25659 15.7954 -2.25659 30.4844 6.76978 39.5103C11.283 44.0233 17.209 46.2735 23.1349 46.2735C26.8604 46.2735 30.5735 45.386 33.949 43.6108L44.3257 53.9869L53.9897 44.3109L43.6131 33.9347ZM8.54511 37.7352C0.493852 29.6843 0.493852 16.5954 8.54511 8.54459C12.5707 4.51921 17.8466 2.50652 23.1349 2.50652C28.4232 2.50652 33.7115 4.51921 37.7371 8.54459C41.6377 12.4326 43.7881 17.6206 43.7881 23.1337C43.7881 28.6592 41.6377 33.8472 37.7371 37.7352C29.6859 45.786 16.5964 45.786 8.54511 37.7352ZM58.0028 48.3238L55.7524 46.0735L46.0884 55.7495L48.3388 57.9997C49.664 59.3249 51.4143 60 53.1646 60C54.9148 60 56.6651 59.3249 58.0028 57.9997C60.6657 55.337 60.6657 50.9865 58.0028 48.3238Z" fill="white"/>
</svg>
